<svg width="105" height="24" viewBox="0 0 105 24" fill="none" xmlns="http://www.w3.org/2000/svg">
<g clip-path="url(#clip0_507_41)">
<path d="M10.2484 23.4655V22.2655C9.75064 22.7919 9.14275 23.2026 8.46793 23.4685C7.7931 23.7343 7.06789 23.8487 6.34375 23.8036C5.5039 23.7567 4.68254 23.5389 3.93017 23.1637C3.1778 22.7885 2.51032 22.2638 1.96875 21.6218C0.656253 20.2255 0 18 0 14.9455C0 11.8909 0.689062 9.66545 2.06719 8.26909C3.0666 7.09632 4.48239 6.35495 6.01777 6.20039C7.55315 6.04583 9.0889 6.49007 10.3031 7.44V2.18182L14.6781 0V23.4655H10.2484ZM10.2484 18.0764V11.8909C9.90888 11.4695 9.48394 11.1244 9.00143 10.8782C8.51892 10.6319 7.98971 10.49 7.44843 10.4618C7.04322 10.4479 6.64064 10.5319 6.27499 10.7067C5.90935 10.8814 5.59147 11.1418 5.34844 11.4655C4.79943 12.433 4.55549 13.5431 4.64844 14.6509C4.59204 15.8929 4.85563 17.1285 5.41406 18.24C5.60604 18.6526 5.91628 18.9992 6.30561 19.2361C6.69494 19.473 7.14589 19.5895 7.60156 19.5709C8.1245 19.5261 8.63161 19.3694 9.08837 19.1115C9.54512 18.8536 9.94079 18.5005 10.2484 18.0764Z" fill="#99CA45" stroke="#99CA45" stroke-width="0.5" stroke-miterlimit="10"/>
<path d="M21.317 0.185501C21.6586 0.173775 21.9984 0.23933 22.3109 0.377249C22.6235 0.515169 22.9006 0.721874 23.1217 0.981866C23.5511 1.48394 23.7876 2.12193 23.7889 2.78187C23.7928 3.42711 23.5681 4.053 23.1545 4.54914C22.9258 4.80637 22.6417 5.00869 22.3235 5.14093C22.0052 5.27317 21.6612 5.33192 21.317 5.31277C20.9596 5.32779 20.6033 5.26311 20.274 5.12346C19.9448 4.98382 19.651 4.77271 19.4139 4.5055C18.9694 4.0274 18.7198 3.4011 18.7139 2.74914C18.7223 2.09441 18.9714 1.46555 19.4139 0.981866C19.6534 0.718442 19.948 0.510614 20.2768 0.373022C20.6056 0.23543 20.9607 0.17142 21.317 0.185501ZM19.0529 6.56732H23.4279V23.4655H19.0529V6.56732Z" fill="#99CA45" stroke="#99CA45" stroke-width="0.5" stroke-miterlimit="10"/>
<path d="M33.2611 5.64003V6.64367H36.1268V10.8328H33.2611V23.4655H28.8861V10.8328H26.7861V6.65458H28.8861V4.90912C28.8861 2.95639 29.2908 1.63639 30.0893 1.0473C30.9577 0.408301 32.007 0.0607033 33.0861 0.0545764C34.2112 0.00608196 35.3327 0.211165 36.3674 0.654577V4.24367C35.9483 3.94209 35.4507 3.76782 34.9346 3.74185C34.5544 3.77673 34.1838 3.88023 33.8408 4.0473C33.4471 4.22185 33.2611 4.75639 33.2611 5.64003Z" fill="#99CA45" stroke="#99CA45" stroke-width="0.5" stroke-miterlimit="10"/>
<path d="M41.7921 0.185501C42.1337 0.173775 42.4735 0.23933 42.786 0.377249C43.0985 0.515169 43.3757 0.721874 43.5968 0.981866C44.0231 1.48499 44.2557 2.12314 44.253 2.78187C44.261 3.4259 44.0401 4.05195 43.6296 4.54914C43.4009 4.80637 43.1168 5.00869 42.7986 5.14093C42.4803 5.27317 42.1363 5.33192 41.7921 5.31277C41.4346 5.32779 41.0784 5.26311 40.7491 5.12346C40.4199 4.98382 40.1261 4.77271 39.889 4.5055C39.4399 4.03034 39.1895 3.40215 39.189 2.74914C39.1922 2.0934 39.442 1.46274 39.889 0.981866C40.1285 0.718442 40.4231 0.510614 40.7519 0.373022C41.0807 0.23543 41.4358 0.17142 41.7921 0.185501ZM39.528 6.56732H43.903V23.4655H39.528V6.56732Z" fill="#99CA45" stroke="#99CA45" stroke-width="0.5" stroke-miterlimit="10"/>
<path d="M52.7951 6.56728V7.57091C54.0814 6.59092 55.6737 6.0963 57.2904 6.17455C58.8236 6.23827 60.2715 6.89575 61.3264 8.00728C62.4201 9.09819 62.9998 10.92 62.9998 13.3527V23.4655H58.6248V13.2218C58.5951 12.4885 58.2997 11.7909 57.7936 11.2582C57.5312 10.964 57.2069 10.7313 56.8439 10.5766C56.4808 10.422 56.088 10.3493 55.6936 10.3636C55.3048 10.3475 54.917 10.4129 54.5553 10.5557C54.1935 10.6986 53.8659 10.9156 53.5936 11.1927C53.3363 11.4507 53.1333 11.7572 52.9962 12.0944C52.8591 12.4315 52.7907 12.7926 52.7951 13.1564V23.4655H48.3545V6.56728H52.7951Z" fill="#99CA45" stroke="#99CA45" stroke-width="0.5" stroke-miterlimit="10"/>
<path d="M69.6606 0.185637C70.0021 0.17391 70.3419 0.239465 70.6545 0.377384C70.967 0.515304 71.2442 0.722009 71.4652 0.982001C71.8989 1.48157 72.136 2.1212 72.1324 2.782C72.1412 3.42805 71.9159 4.05556 71.4981 4.54927C71.2703 4.80778 70.9864 5.01097 70.668 5.14332C70.3495 5.27567 70.0049 5.33367 69.6606 5.31291C69.3046 5.32862 68.9497 5.26422 68.6222 5.12447C68.2946 4.98472 68.0028 4.77322 67.7684 4.50564C67.3193 4.03047 67.0689 3.40228 67.0684 2.74927C67.0716 2.09354 67.3214 1.46287 67.7684 0.982001C68.0048 0.717631 68.2973 0.509025 68.6246 0.37129C68.9518 0.233555 69.3057 0.170139 69.6606 0.185637ZM67.3965 6.56746H71.7715V23.4656H67.3965V6.56746Z" fill="#99CA45" stroke="#99CA45" stroke-width="0.5" stroke-miterlimit="10"/>
<path d="M82.403 0.185303V6.64348H86.4061V10.8653H82.403V17.7489C82.403 18.7635 82.7749 19.3417 83.4968 19.4726C84.2186 19.6035 85.214 19.1671 86.3733 18.1417L85.7171 22.7999C84.4946 23.4784 83.0972 23.7784 81.703 23.6617C81.1351 23.6356 80.5817 23.4745 80.0889 23.1917C79.5961 22.909 79.1783 22.5128 78.8702 22.0362C78.2697 21.0897 77.9511 19.9926 77.9515 18.8726V10.8653H75.064V6.65439H77.9515V2.29076L82.403 0.185303Z" fill="#99CA45" stroke="#99CA45" stroke-width="0.5" stroke-miterlimit="10"/>
<path d="M103.786 21C102.943 21.8869 101.924 22.5894 100.795 23.0626C99.6648 23.5359 98.4487 23.7697 97.2235 23.7491C96.1675 23.7693 95.1197 23.5603 94.1527 23.1365C93.1857 22.7126 92.3227 22.0841 91.6235 21.2945C90.1856 19.4717 89.4728 17.1837 89.622 14.8691C89.5045 12.5408 90.2875 10.2565 91.8095 8.48726C92.4748 7.74537 93.2918 7.1542 94.2053 6.75353C95.1188 6.35285 96.1078 6.15196 97.1057 6.16436C98.1036 6.17676 99.0873 6.40217 99.9905 6.82543C100.894 7.24869 101.696 7.85997 102.342 8.61816C103.801 10.2691 104.435 12.8436 104.245 16.3418H94.0407C94.1303 17.0358 94.3936 17.6961 94.8063 18.2618C95.1264 18.6423 95.5319 18.9424 95.9898 19.1376C96.4477 19.3328 96.9453 19.4177 97.4423 19.3854C98.0159 19.445 98.5954 19.3626 99.1295 19.1457C99.6636 18.9288 100.136 18.584 100.505 18.1418L103.786 21ZM94.2485 12.96H99.9798C99.8757 12.2253 99.5901 11.528 99.1485 10.9309C98.8997 10.6396 98.5864 10.4101 98.2333 10.2606C97.8802 10.111 97.4971 10.0454 97.1142 10.0691C96.7325 10.0257 96.3461 10.0789 95.9905 10.2238C95.635 10.3687 95.3217 10.6006 95.0798 10.8982C94.6303 11.5076 94.3306 12.2139 94.2048 12.96H94.2485Z" fill="#99CA45" stroke="#99CA45" stroke-width="0.5" stroke-miterlimit="10"/>
</g>
<defs>
<clipPath id="clip0_507_41">
<rect width="105" height="24" fill="white"/>
</clipPath>
</defs>
</svg>
